<svg class="border shadow-md" viewBox="0 0 1351.68 760.32" xmlns="http://www.w3.org/2000/svg" preserveAspectRatio="none" style="width: 1351.68px; height: 760.32px;"><rect class="bg" id="bg" x="0" y="0" width="1351.68" height="760.32" fill="#ffffff"/><g transform="rotate(0 675.84 380.16)"><path d="M -775.84 -46.03 S -397.92 -113.03&#10;            0.00 -46.03 192.84 -84.05&#10;            775.84 -46.03 1153.76 -97.03&#10;            1551.68 -46.03 1929.60 -113.03&#10;            2327.52 -46.03 h 110 V 960.32 H -775.84 Z" fill="#FFFFFF" id="-1"/><path d="M -775.84 30.00 S -597.00 -8.02&#10;            0.00 30.00 373.84 -26.00&#10;            775.84 30.00 1153.76 -13.00&#10;            1551.68 30.00 1929.60 -8.02&#10;            2327.52 30.00 h 110 V 960.32 H -775.84 Z" fill="#ecfafe" id="0"/><path id="1" d="M -775.84 106.03 S -397.92 68.02&#10;            0.00 106.03 23.84 68.02&#10;            775.84 106.03 892.68 68.02&#10;            1551.68 106.03 1929.60 32.03&#10;            2327.52 106.03 h 110 V 960.32 H -775.84 Z" fill="#d9f5fd"/><path id="2" d="M -775.84 182.06 S -397.92 133.06&#10;            0.00 182.06 377.92 138.06&#10;            775.84 182.06 1153.76 144.05&#10;            1551.68 182.06 1917.52 134.06&#10;            2327.52 182.06 h 110 V 960.32 H -775.84 Z" fill="#c6f0fc"/><path id="3" d="M -775.84 258.10 S -397.92 220.08&#10;            0.00 258.10 377.92 183.10&#10;            775.84 258.10 1153.76 220.08&#10;            1551.68 258.10 1617.52 205.10&#10;            2327.52 258.10 h 110 V 960.32 H -775.84 Z" fill="#b3ebfb"/><path id="4" d="M -775.84 334.13 S -397.92 296.11&#10;            0.00 334.13 377.92 296.11&#10;            775.84 334.13 864.68 296.11&#10;            1551.68 334.13 1929.60 267.13&#10;            2327.52 334.13 h 110 V 960.32 H -775.84 Z" fill="#a0e6fa"/><path id="5" d="M -775.84 410.16 S -397.92 372.14&#10;            0.00 410.16 377.92 372.14&#10;            775.84 410.16 1153.76 337.16&#10;            1551.68 410.16 1770.52 372.14&#10;            2327.52 410.16 h 110 V 960.32 H -775.84 Z" fill="#8de1f9"/><path id="6" d="M -775.84 486.19 S -723.00 448.18&#10;            0.00 486.19 181.84 439.19&#10;            775.84 486.19 1153.76 411.19&#10;            1551.68 486.19 1561.52 448.18&#10;            2327.52 486.19 h 110 V 960.32 H -775.84 Z" fill="#7adcf8"/><path id="7" d="M -775.84 562.22 S -779.00 496.22&#10;            0.00 562.22 377.92 524.21&#10;            775.84 562.22 797.68 492.22&#10;            1551.68 562.22 1929.60 509.22&#10;            2327.52 562.22 h 110 V 960.32 H -775.84 Z" fill="#67d7f7"/><path id="8" d="M -775.84 638.26 S -673.00 600.24&#10;            0.00 638.26 213.84 595.26&#10;            775.84 638.26 1153.76 600.24&#10;            1551.68 638.26 1929.60 600.24&#10;            2327.52 638.26 h 110 V 960.32 H -775.84 Z" fill="#54d2f6"/><path id="9" d="M -775.84 714.29 S -397.92 670.29&#10;            0.00 714.29 273.84 676.27&#10;            775.84 714.29 1069.68 652.29&#10;            1551.68 714.29 1929.60 643.29&#10;            2327.52 714.29 h 110 V 960.32 H -775.84 Z" fill="#41cdf5"/></g></svg>